<?xml version="1.0" encoding="UTF-8"?>
<svg id="Layer_2" data-name="Layer 2" xmlns="http://www.w3.org/2000/svg" viewBox="0 0 38.2 69.77">
  <defs>
    <style>
      .cls-1 {
        fill: #bbd2ff;
      }

      .cls-2 {
        fill: #3a6ff7;
      }
    </style>
  </defs>
  <g id="Layer_1-2" data-name="Layer 1">
    <path class="cls-1" d="M.07,65.53c-.11-1.89-.07-3.61-.04-5.59h10.74c.17,2.26.23,4.27-.09,6.53-.2,1.46-2.36,3.2-3.82,3.22l-1.9.08c-2.27.02-4.72-1.48-4.88-4.24Z"/>
    <path class="cls-2" d="M38.19,16.88c0-1.96-1.59-3.54-3.55-3.54h0c-1.95,0-3.53,1.59-3.53,3.54v19.39c0,1.94-2.61,2.56-3.47.82L10.64,3.18c-.27-.49-1.72-2.6-4.81-3.18C2.61,0,0,2.61,0,5.83v29.08l4.04-7.2c.17-.4,1.1-.88,1.46-.79.43.11,1.2.76,1.39,1.21l3.92,7.11,4.57,7.31s6.25,10.4,14.2,10.4c6.26,0,8.7-4.41,8.64-8.84v-27.23Z"/>
    <path class="cls-2" d="M10.85,58.74H.05v-21.51s4.04-7.2,4.04-7.2c.17-.4,1.1-.88,1.46-.79.43.11,1.2.76,1.39,1.21l3.92,7.11v21.18Z"/>
  </g>
</svg>